<svg version="1.1" id="Layer_1" xmlns="http://www.w3.org/2000/svg" xmlns:xlink="http://www.w3.org/1999/xlink" x="0px" y="0px"
	 width="254.549px" height="115.07px" viewBox="0 0 254.549 115.07" enable-background="new 0 0 254.549 115.07"
	 xml:space="preserve">
<g>
	<path fill="#084CA1" d="M138.712,35.07c-0.282-5.298-0.62-11.724-0.62-16.402h-0.113c-1.353,4.396-2.875,9.188-4.791,14.43
		l-6.708,18.432h-3.72l-6.2-18.094c-1.804-5.411-3.27-10.258-4.34-14.768h-0.113c-0.113,4.734-0.395,11.048-0.732,16.797
		l-1.015,16.29h-4.679l2.649-37.99h6.256l6.482,18.375c1.578,4.679,2.818,8.85,3.833,12.795h0.112
		c1.015-3.833,2.368-8.004,4.059-12.795l6.764-18.375h6.257l2.367,37.99h-4.847L138.712,35.07z"/>
	<path fill="#084CA1" d="M176.533,37.889c0,10.09-7.046,14.486-13.584,14.486c-7.328,0-13.077-5.411-13.077-14.035
		c0-9.075,6.031-14.43,13.528-14.43C171.234,23.91,176.533,29.604,176.533,37.889z M154.945,38.171
		c0,5.975,3.382,10.483,8.229,10.483c4.735,0,8.286-4.452,8.286-10.597c0-4.622-2.311-10.428-8.173-10.428
		C157.481,27.63,154.945,33.041,154.945,38.171z"/>
	<path fill="#084CA1" d="M182.79,31.857c0-2.874-0.057-5.129-0.226-7.384h4.396l0.282,4.51h0.112
		c1.353-2.537,4.509-5.073,9.019-5.073c3.777,0,9.639,2.255,9.639,11.611v16.233h-4.96V36.028c0-4.396-1.635-8.06-6.313-8.06
		c-3.213,0-5.75,2.311-6.651,5.072c-0.226,0.62-0.338,1.466-0.338,2.312v16.402h-4.96V31.857z"/>
	<path fill="#084CA1" d="M220.048,17.936v6.538h7.102v3.776h-7.102v14.712c0,3.382,0.958,5.298,3.72,5.298
		c1.353,0,2.142-0.112,2.875-0.338l0.226,3.776c-0.958,0.339-2.48,0.677-4.396,0.677c-2.311,0-4.171-0.789-5.354-2.086
		c-1.353-1.521-1.917-3.945-1.917-7.158V28.25h-4.228v-3.776h4.228V19.4L220.048,17.936z"/>
	<path fill="#084CA1" d="M238.254,16.808c0,1.691-1.184,3.044-3.157,3.044c-1.804,0-2.987-1.353-2.987-3.044
		c0-1.69,1.24-3.1,3.1-3.1C237.014,13.708,238.254,15.061,238.254,16.808z M232.73,51.755V24.474h4.96v27.281H232.73z"/>
</g>
<g>
	<path fill="#B21E8E" d="M126.421,75.253h-14.779v13.76h16.535v4.134h-21.518V54.981h20.668v4.133h-15.685v12.062h14.779V75.253z"/>
	<path fill="#B21E8E" d="M134.686,65.74l5.379,15.345c0.906,2.549,1.642,4.813,2.208,7.078h0.17
		c0.623-2.265,1.416-4.529,2.322-7.078l5.323-15.345h5.209l-10.759,27.406h-4.756L129.363,65.74H134.686z"/>
	<path fill="#B21E8E" d="M162.768,80.35c0.113,6.738,4.36,9.513,9.4,9.513c3.567,0,5.776-0.623,7.588-1.416l0.906,3.567
		c-1.755,0.793-4.813,1.756-9.173,1.756c-8.437,0-13.477-5.606-13.477-13.873c0-8.268,4.87-14.723,12.854-14.723
		c9.003,0,11.325,7.814,11.325,12.854c0,1.02-0.057,1.756-0.169,2.322H162.768z M177.377,76.782
		c0.057-3.115-1.302-8.041-6.908-8.041c-5.096,0-7.248,4.586-7.645,8.041H177.377z"/>
	<path fill="#B21E8E" d="M188.36,73.158c0-2.889-0.057-5.153-0.227-7.418h4.417l0.283,4.529h0.113
		c1.359-2.548,4.53-5.096,9.06-5.096c3.794,0,9.683,2.265,9.683,11.665v16.308h-4.983V77.348c0-4.416-1.642-8.097-6.342-8.097
		c-3.228,0-5.776,2.321-6.682,5.096c-0.227,0.623-0.34,1.473-0.34,2.322v16.478h-4.983V73.158z"/>
	<path fill="#B21E8E" d="M225.786,59.171v6.569h7.135v3.794h-7.135v14.778c0,3.397,0.963,5.323,3.737,5.323
		c1.359,0,2.152-0.113,2.888-0.34l0.227,3.794c-0.963,0.34-2.492,0.68-4.417,0.68c-2.322,0-4.19-0.793-5.379-2.096
		c-1.359-1.528-1.925-3.964-1.925-7.191V69.534h-4.247V65.74h4.247v-5.097L225.786,59.171z"/>
	<path fill="#B21E8E" d="M237.845,88.106c1.529,0.906,4.134,1.926,6.625,1.926c3.567,0,5.267-1.756,5.267-4.077
		c0-2.378-1.416-3.624-5.04-4.983c-4.983-1.812-7.305-4.473-7.305-7.758c0-4.416,3.624-8.04,9.457-8.04
		c2.775,0,5.209,0.736,6.682,1.698l-1.189,3.624c-1.076-0.68-3.058-1.642-5.606-1.642c-2.944,0-4.53,1.698-4.53,3.737
		c0,2.265,1.585,3.284,5.153,4.699c4.7,1.756,7.191,4.134,7.191,8.211c0,4.87-3.794,8.268-10.193,8.268
		c-3.001,0-5.775-0.793-7.701-1.926L237.845,88.106z"/>
</g>
<g>
	<path fill="none" d="M24.501,26.781c-0.381-0.202-0.842-0.298-1.252-0.159c-0.507,0.17-0.841,0.662-0.989,1.169
		c-0.148,0.507-0.145,1.041-0.197,1.566c-0.026,0.271-0.073,0.547-0.157,0.807l4.696-0.656
		C26.199,28.397,25.532,27.33,24.501,26.781z"/>
	<path fill="none" d="M38.415,25.129c-0.38-0.202-0.841-0.298-1.252-0.159c-0.506,0.171-0.841,0.662-0.988,1.169
		c-0.148,0.507-0.145,1.042-0.197,1.565c-0.017,0.169-0.045,0.338-0.081,0.505l4.51-0.63C39.997,26.571,39.36,25.632,38.415,25.129z
		"/>
	<path fill="none" d="M79.919,18.542c-0.38-0.202-0.841-0.298-1.252-0.159c-0.507,0.17-0.841,0.662-0.989,1.169
		s-0.145,1.041-0.197,1.564c-0.046,0.473-0.156,0.956-0.425,1.344l5.119-0.715C81.801,20.473,81.099,19.169,79.919,18.542z"/>
	<path fill="none" d="M52.14,22.799c-0.38-0.202-0.841-0.298-1.252-0.159c-0.506,0.171-0.841,0.662-0.988,1.169
		c-0.148,0.507-0.145,1.042-0.197,1.565c-0.031,0.318-0.095,0.64-0.21,0.937l4.792-0.67C53.888,24.489,53.208,23.366,52.14,22.799z"
		/>
	<path fill="none" d="M66.091,20.738c-0.38-0.202-0.841-0.298-1.252-0.159c-0.506,0.17-0.841,0.662-0.989,1.169
		c-0.147,0.507-0.145,1.041-0.196,1.566c-0.036,0.359-0.108,0.727-0.258,1.054l4.873-0.681
		C67.878,22.499,67.192,21.323,66.091,20.738z"/>
	<path fill="#B21E8E" d="M0,94.987l24.007,12.166l77.533-13.683l-8.583-73.231l-7.538,1.053c0.382,1.271,0.604,2.59,0.626,3.917
		l4.076-0.56l7.791,66L26.924,103.2l-7.763-68.808l8.079-1.109c-0.042-0.855-0.126-1.708-0.293-2.548
		c-0.08-0.399-0.196-0.816-0.345-1.228l-4.696,0.656c-0.079,0.242-0.19,0.471-0.356,0.666c-0.731,0.869-1.728,0.449-2.233-0.305
		l-6.545,0.914L0.417,90.803l21.258-3.248l-0.057,3.102L0,94.987z"/>
	<path fill="#B21E8E" d="M82.684,25.671c-0.014-1.065-0.111-2.131-0.319-3.175c-0.049-0.245-0.115-0.497-0.19-0.751l-5.119,0.715
		c-0.03,0.043-0.052,0.091-0.086,0.131c-0.569,0.675-1.3,0.569-1.836,0.138l-3.616,0.505c0.402,1.255,0.631,2.561,0.68,3.877
		L82.684,25.671z"/>
	<path fill="#B21E8E" d="M41.144,31.374c-0.05-0.769-0.133-1.535-0.284-2.29c-0.098-0.489-0.25-1.005-0.453-1.505l-4.51,0.63
		c-0.075,0.354-0.2,0.694-0.432,0.97c-0.817,0.968-1.973,0.34-2.396-0.574l-3.208,0.448c0.413,1.217,0.646,2.488,0.722,3.771
		L41.144,31.374z"/>
	<path fill="#B21E8E" d="M54.887,29.487c-0.036-0.918-0.122-1.833-0.302-2.733c-0.072-0.362-0.172-0.739-0.301-1.113l-4.792,0.67
		c-0.075,0.193-0.167,0.378-0.303,0.538c-0.696,0.825-1.638,0.489-2.164-0.194l-3.349,0.468c0.443,1.221,0.702,2.5,0.802,3.794
		L54.887,29.487z"/>
	<path fill="#B21E8E" d="M68.845,27.57c-0.03-0.966-0.119-1.931-0.308-2.878c-0.065-0.327-0.156-0.666-0.268-1.005l-4.873,0.681
		c-0.068,0.149-0.147,0.292-0.254,0.419c-0.659,0.781-1.532,0.516-2.07-0.094l-3.536,0.493c0.409,1.241,0.64,2.535,0.701,3.841
		L68.845,27.57z"/>
	<path fill="#FFFFFF" d="M83.067,32.697c-0.592-0.093-0.988-0.69-1.059-1.277c-0.071-0.587,0.105-1.172,0.245-1.747
		c0.32-1.311,0.448-2.657,0.431-4.002L72.198,27.11c0.08,2.146-0.298,4.313-1.162,6.289c-0.335,0.766-0.961,1.624-1.796,1.494
		c-0.592-0.093-0.988-0.69-1.058-1.277c-0.071-0.586,0.105-1.172,0.245-1.747c0.344-1.405,0.462-2.854,0.418-4.299l-10.608,1.457
		c0.104,2.194-0.268,4.412-1.152,6.433c-0.335,0.766-0.961,1.625-1.795,1.494c-0.593-0.093-0.989-0.689-1.059-1.276
		c-0.071-0.587,0.105-1.173,0.245-1.748c0.355-1.453,0.47-2.951,0.412-4.442L44.48,30.916c0.181,2.337-0.178,4.718-1.122,6.874
		c-0.335,0.766-0.961,1.625-1.796,1.494c-0.592-0.093-0.988-0.689-1.058-1.276c-0.071-0.587,0.105-1.173,0.245-1.748
		c0.391-1.597,0.5-3.248,0.394-4.886l-10.56,1.45c0.135,2.254-0.231,4.54-1.14,6.618c-0.335,0.766-0.961,1.625-1.795,1.494
		c-0.593-0.093-0.988-0.69-1.059-1.276c-0.071-0.587,0.105-1.173,0.245-1.748c0.37-1.513,0.482-3.075,0.405-4.629l-8.079,1.109
		l7.763,68.808l70.988-12.551l-7.791-66l-4.076,0.56c0.035,2.05-0.358,4.107-1.183,5.994C84.527,31.969,83.901,32.827,83.067,32.697
		z M39.266,65.093l1.379,10.515L29.963,77.01l-1.38-10.515L39.266,65.093z M41.045,87.846c-2.392,0.943-5.224,0.279-7.266-1.284
		c-2.042-1.563-3.368-3.91-4.159-6.357c2.361,0.735,4.965-0.283,7.376,0.271c2.624,0.604,4.418,3.387,5.014,5.855
		c-1.117-0.496-2.241-0.209-3.387-0.663c-1.642-0.65-3.24-1.505-4.75-2.417C35.436,85.732,38.139,87.463,41.045,87.846z
		 M62.877,48.281l1.379,10.515l-10.682,1.402l-1.38-10.515L62.877,48.281z M44.523,65.976c1.388-1.717,3.519-2.911,5.873-3.293
		c0.492,1.378,0.748,2.981,0.675,4.538c-0.065,1.402-0.398,2.768-1.064,3.896c-0.499,0.845-1.259,1.573-2.2,2.021
		c-0.916,0.437-1.994,0.528-2.918,0.953c0.472-0.924,0.13-2.264,0.384-3.306c0.34-1.394,1.115-3.233,2.567-3.944
		c-1.078,0.527-2.473,1.42-2.998,2.463c-0.644,1.28-1.056,2.765-1.596,4.1C42.375,70.758,42.761,68.153,44.523,65.976z
		 M44.474,87.389l-1.38-10.515l10.683-1.402l1.379,10.515L44.474,87.389z M63.772,82.206c-0.96,2.748-3.682,3.745-5.932,3.5
		c0.616-1.08,0.552-2.459,1.137-3.589c0.837-1.619,1.847-3.111,2.891-4.482c-2.422,0.847-4.377,3.263-5.19,6.415
		c-0.428-3.063,0.618-6.023,2.318-7.754c1.701-1.731,3.966-2.36,6.231-2.346C64.195,76.353,64.654,79.682,63.772,82.206z
		 M54.83,73.616l-1.379-10.515l10.682-1.402l1.38,10.515L54.83,73.616z M66.728,49.982c0.479-1.49,1.756-2.405,3.019-3.168
		c1.841-1.114,3.78-2.072,5.798-2.866c-0.478,3.123,1.357,6.147,0.088,9.284c-0.606,1.498-1.665,2.72-2.994,3.499
		c-1.004,0.589-2.466,0.637-3.355,1.392c1.214-1.03,2.3-2.254,2.973-3.771c0.673-1.518,0.907-3.354,0.419-5.149
		c0.642,2.365-3.403,6.67-5.02,7.425C66.667,55.239,66.249,51.472,66.728,49.982z M68.357,71.227l-1.38-10.515l10.683-1.402
		l1.379,10.515L68.357,71.227z M91.373,66.159c-1.543-2.428-4.068-4.183-6.898-4.795c3.096,0.668,4.628,4.173,5.97,6.558
		c-1.601,0.528-3.376,0.42-4.852-0.295c-0.085-0.042-0.169-0.084-0.251-0.128c-2.611-1.391-3.206-3.781-3.474-6.55
		c-0.102-1.046-0.388-2.129-1.147-2.826c1.528,0.901,3.515,0.497,5.254,0.911c1.544,0.368,2.862,1.397,3.758,2.693
		C90.63,63.025,91.13,64.578,91.373,66.159z M89.673,54.858l-10.682,1.402l-1.38-10.515l10.683-1.402L89.673,54.858z"/>
	<path fill="#084CA1" d="M21.55,30.83c0.166-0.195,0.277-0.424,0.356-0.666c0.084-0.26,0.131-0.536,0.157-0.807
		c0.052-0.525,0.049-1.06,0.197-1.566c0.148-0.507,0.482-0.999,0.989-1.169c0.41-0.139,0.871-0.043,1.252,0.159
		c1.031,0.549,1.698,1.616,2.101,2.727c0.149,0.411,0.265,0.828,0.345,1.228c0.167,0.84,0.251,1.692,0.293,2.548
		c0.077,1.554-0.035,3.116-0.405,4.629c-0.14,0.575-0.316,1.161-0.245,1.748c0.071,0.586,0.466,1.184,1.059,1.276
		c0.834,0.131,1.46-0.729,1.795-1.494c0.909-2.078,1.274-4.364,1.14-6.618c-0.077-1.283-0.309-2.555-0.722-3.771
		c-0.181-0.532-0.386-1.056-0.63-1.563c-0.652-1.354-1.549-2.634-2.816-3.462s-2.95-1.138-4.346-0.532
		c-1.29,0.56-2.167,1.809-2.594,3.132c-0.325,1.009-0.663,2.158-0.454,3.221c0.047,0.239,0.156,0.469,0.296,0.677
		C19.822,31.279,20.818,31.699,21.55,30.83z"/>
	<path fill="#084CA1" d="M35.465,29.179c0.232-0.275,0.357-0.616,0.432-0.97c0.036-0.167,0.064-0.336,0.081-0.505
		c0.052-0.523,0.049-1.059,0.197-1.565c0.147-0.507,0.482-0.998,0.988-1.169c0.411-0.139,0.872-0.043,1.252,0.159
		c0.945,0.503,1.582,1.442,1.992,2.45c0.204,0.5,0.355,1.016,0.453,1.505c0.151,0.755,0.234,1.521,0.284,2.29
		c0.106,1.638-0.003,3.289-0.394,4.886c-0.14,0.575-0.316,1.161-0.245,1.748c0.07,0.587,0.466,1.184,1.058,1.276
		c0.835,0.131,1.461-0.729,1.796-1.494c0.943-2.156,1.302-4.537,1.122-6.874c-0.1-1.294-0.359-2.573-0.802-3.794
		c-0.158-0.436-0.331-0.866-0.532-1.284c-0.652-1.353-1.549-2.635-2.817-3.462c-1.267-0.828-2.949-1.137-4.345-0.532
		c-1.291,0.56-2.168,1.809-2.594,3.132c-0.326,1.009-0.663,2.159-0.455,3.221c0.027,0.14,0.073,0.276,0.134,0.408
		C33.492,29.519,34.648,30.146,35.465,29.179z"/>
	<path fill="#084CA1" d="M49.19,26.849c0.135-0.16,0.228-0.345,0.303-0.538c0.115-0.297,0.179-0.618,0.21-0.937
		c0.052-0.523,0.049-1.059,0.197-1.565c0.147-0.507,0.482-0.998,0.988-1.169c0.411-0.139,0.872-0.043,1.252,0.159
		c1.068,0.567,1.748,1.69,2.145,2.842c0.129,0.374,0.229,0.751,0.301,1.113c0.18,0.9,0.266,1.815,0.302,2.733
		c0.058,1.491-0.057,2.989-0.412,4.442c-0.14,0.575-0.316,1.161-0.245,1.748c0.07,0.587,0.466,1.184,1.059,1.276
		c0.834,0.131,1.46-0.729,1.795-1.494c0.884-2.021,1.255-4.238,1.152-6.433c-0.062-1.306-0.292-2.6-0.701-3.841
		c-0.188-0.571-0.402-1.135-0.664-1.679c-0.652-1.353-1.549-2.635-2.817-3.462c-1.267-0.828-2.949-1.137-4.345-0.532
		c-1.29,0.56-2.167,1.809-2.594,3.132c-0.325,1.009-0.663,2.158-0.455,3.221c0.056,0.282,0.188,0.555,0.367,0.788
		C47.552,27.338,48.494,27.674,49.19,26.849z"/>
	<path fill="#084CA1" d="M63.142,24.787c0.107-0.127,0.187-0.27,0.254-0.419c0.15-0.327,0.223-0.694,0.258-1.054
		c0.051-0.525,0.049-1.06,0.196-1.566c0.148-0.507,0.483-0.999,0.989-1.169c0.411-0.139,0.872-0.043,1.252,0.159
		c1.101,0.585,1.787,1.761,2.178,2.949c0.111,0.339,0.202,0.678,0.268,1.005c0.189,0.947,0.278,1.912,0.308,2.878
		c0.044,1.445-0.074,2.894-0.418,4.299c-0.14,0.575-0.316,1.161-0.245,1.747c0.07,0.587,0.466,1.185,1.058,1.277
		c0.835,0.13,1.461-0.729,1.796-1.494c0.864-1.977,1.242-4.143,1.162-6.289c-0.049-1.316-0.278-2.622-0.68-3.877
		c-0.195-0.608-0.417-1.209-0.695-1.786c-0.652-1.354-1.549-2.634-2.817-3.463c-1.267-0.827-2.949-1.137-4.345-0.531
		c-1.291,0.56-2.168,1.809-2.594,3.132c-0.326,1.009-0.663,2.158-0.455,3.221c0.064,0.326,0.236,0.633,0.46,0.888
		C61.609,25.303,62.482,25.568,63.142,24.787z"/>
	<path fill="#084CA1" d="M76.97,22.591c0.034-0.04,0.057-0.088,0.086-0.131c0.269-0.388,0.379-0.871,0.425-1.344
		c0.052-0.523,0.049-1.058,0.197-1.564s0.482-0.999,0.989-1.169c0.411-0.139,0.872-0.043,1.252,0.159
		c1.179,0.627,1.881,1.931,2.255,3.203c0.075,0.254,0.141,0.506,0.19,0.751c0.208,1.044,0.306,2.109,0.319,3.175
		c0.017,1.345-0.11,2.691-0.431,4.002c-0.14,0.575-0.316,1.16-0.245,1.747c0.071,0.587,0.467,1.185,1.059,1.277
		c0.834,0.13,1.46-0.729,1.795-1.494c0.825-1.887,1.218-3.944,1.183-5.994c-0.022-1.327-0.244-2.646-0.626-3.917
		c-0.209-0.697-0.453-1.384-0.77-2.041c-0.652-1.354-1.549-2.635-2.816-3.463c-1.267-0.827-2.95-1.137-4.346-0.531
		c-1.29,0.559-2.167,1.809-2.594,3.131c-0.325,1.01-0.663,2.159-0.454,3.222c0.085,0.434,0.351,0.843,0.694,1.119
		C75.669,23.16,76.4,23.266,76.97,22.591z"/>
	
		<rect x="52.923" y="48.852" transform="matrix(0.13 0.9915 -0.9915 0.13 104.4333 -10.5435)" fill="#084CA1" width="10.605" height="10.775"/>
	
		<rect x="78.255" y="45" transform="matrix(-0.9915 0.1302 -0.1302 -0.9915 173.1206 89.2895)" fill="#B21E8E" width="10.774" height="10.605"/>
	
		<rect x="29.312" y="65.664" transform="matrix(0.13 0.9915 -0.9915 0.13 100.5613 27.4925)" fill="#E31E36" width="10.605" height="10.775"/>
	
		<rect x="67.706" y="59.881" transform="matrix(-0.1301 -0.9915 0.9915 -0.1301 17.7951 146.1485)" fill="#00AF64" width="10.605" height="10.774"/>
	
		<rect x="43.823" y="76.043" transform="matrix(-0.1301 -0.9915 0.9915 -0.1301 -25.2205 140.7334)" fill="#F2C019" width="10.605" height="10.774"/>
	
		<rect x="54.179" y="62.27" transform="matrix(-0.13 -0.9915 0.9915 -0.13 0.1327 135.4318)" fill="#084CA1" width="10.605" height="10.775"/>
	<path fill="#00AF64" d="M72.676,49.203c0.488,1.796,0.254,3.632-0.419,5.149c-0.673,1.517-1.759,2.74-2.973,3.771
		c0.889-0.755,2.351-0.803,3.355-1.392c1.329-0.779,2.388-2.001,2.994-3.499c1.269-3.137-0.566-6.161-0.088-9.284
		c-2.018,0.794-3.957,1.752-5.798,2.866c-1.263,0.763-2.54,1.678-3.019,3.168c-0.479,1.489-0.061,5.257,0.928,6.646
		C69.272,55.873,73.317,51.568,72.676,49.203z"/>
	<path fill="#E31E36" d="M42.011,86.331c-0.596-2.469-2.39-5.252-5.014-5.855c-2.411-0.555-5.015,0.464-7.376-0.271
		c0.791,2.447,2.117,4.794,4.159,6.357c2.042,1.563,4.874,2.228,7.266,1.284c-2.907-0.383-5.61-2.113-7.172-4.595
		c1.51,0.912,3.108,1.767,4.75,2.417C39.77,86.122,40.894,85.835,42.011,86.331z"/>
	<path fill="#084CA1" d="M56.678,84.05c0.813-3.152,2.768-5.568,5.19-6.415c-1.044,1.371-2.054,2.863-2.891,4.482
		c-0.585,1.13-0.521,2.509-1.137,3.589c2.25,0.245,4.972-0.752,5.932-3.5c0.882-2.524,0.423-5.854,1.455-8.256
		c-2.265-0.015-4.53,0.614-6.231,2.346C57.296,78.026,56.25,80.987,56.678,84.05z"/>
	<path fill="#F2C019" d="M44.842,69.304c0.525-1.043,1.92-1.936,2.998-2.463c-1.452,0.711-2.227,2.551-2.567,3.944
		c-0.254,1.042,0.088,2.382-0.384,3.306c0.924-0.425,2.002-0.517,2.918-0.953c0.941-0.448,1.701-1.177,2.2-2.021
		c0.666-1.128,0.999-2.493,1.064-3.896c0.073-1.557-0.183-3.16-0.675-4.538c-2.354,0.382-4.485,1.576-5.873,3.293
		c-1.762,2.178-2.148,4.782-1.277,7.428C43.786,72.068,44.198,70.584,44.842,69.304z"/>
	<path fill="#B21E8E" d="M85.975,59.034c-1.739-0.414-3.726-0.01-5.254-0.911c0.759,0.697,1.045,1.78,1.147,2.826
		c0.268,2.769,0.863,5.159,3.474,6.55c0.082,0.044,0.166,0.086,0.251,0.128c1.476,0.715,3.251,0.823,4.852,0.295
		c-1.342-2.385-2.874-5.89-5.97-6.558c2.83,0.612,5.355,2.367,6.898,4.795c-0.243-1.581-0.743-3.134-1.64-4.432
		C88.837,60.432,87.519,59.402,85.975,59.034z"/>
	<path fill="#FFFFFF" d="M241.417,20.228l0.172,0.492l2.577-1.897l0.147-0.075l-0.012-0.024l0.003-0.002l-0.113-0.216l-6.789-13.428
		l-1.164,0.395c1.933,1.854,3.387,4.229,4.182,6.805c0.626,2.033,0.358,4.532,1.205,6.488l-0.015,0.006
		c-1.254-2.646-2.827-5.176-4.941-7.169c-2.153-2.029-4.909-3.473-7.792-3.634c2.517,0.141,5.799,4.354,7.946,8.126l4.226,4.321
		L241.417,20.228z"/>
	<path fill="#084CA1" d="M228.878,7.968c2.883,0.161,5.639,1.604,7.792,3.634c2.114,1.993,3.687,4.523,4.941,7.169l0.015-0.006
		c-0.847-1.956-0.579-4.455-1.205-6.488c-0.795-2.575-2.249-4.951-4.182-6.805c-0.136-0.131-0.269-0.266-0.41-0.392
		c-4.484-3.982-9.601-2.485-14.27-5.08c0.695,3.968,1.662,7.892,2.892,11.732c0.843,2.633,1.915,5.378,4.077,7.054
		c2.161,1.675,8.052,3.068,10.441,2.127c-0.249-1.095-1.053-2.901-2.145-4.819C234.677,12.321,231.395,8.108,228.878,7.968z"/>
</g>
</svg>
